<?xml version="1.0" encoding="UTF-8" standalone="no"?>
<!DOCTYPE svg PUBLIC "-//W3C//DTD SVG 1.1//EN"
 "http://www.w3.org/Graphics/SVG/1.1/DTD/svg11.dtd">
<!-- Generated by graphviz version 2.44.0 (0)
 -->
<!-- Title: G Pages: 1 -->
<svg width="433pt" height="269pt"
 viewBox="0.00 0.00 433.00 269.00" xmlns="http://www.w3.org/2000/svg" xmlns:xlink="http://www.w3.org/1999/xlink">
<g id="graph0" class="graph" transform="scale(1 1) rotate(0) translate(4 265)">
<title>G</title>
<polygon fill="white" stroke="transparent" points="-4,4 -4,-265 429,-265 429,4 -4,4"/>
<g id="clust1" class="cluster">
<title>cluster_cluster</title>
<polygon fill="#f9f9f9" stroke="lightgrey" points="8,-8 8,-253 152,-253 152,-8 8,-8"/>
<text text-anchor="middle" x="80" y="-237.8" font-family="Helvetica,Arial,sans-serif" font-size="14.00">Cluster</text>
</g>
<g id="clust2" class="cluster">
<title>cluster_monitoring</title>
<polygon fill="none" stroke="black" stroke-dasharray="5,2" points="172,-93 172,-168 417,-168 417,-93 172,-93"/>
<text text-anchor="middle" x="294.5" y="-152.8" font-family="Helvetica,Arial,sans-serif" font-size="14.00">Monitoring Server</text>
</g>
<!-- nodeA -->
<g id="node1" class="node">
<title>nodeA</title>
<polygon fill="white" stroke="black" points="144,-222 16,-222 16,-184 144,-184 144,-222"/>
<text text-anchor="middle" x="80" y="-206.8" font-family="Helvetica,Arial,sans-serif" font-size="14.00">NodeA</text>
<text text-anchor="middle" x="80" y="-191.8" font-family="Helvetica,Arial,sans-serif" font-size="14.00">cc&#45;metric&#45;collector</text>
</g>
<!-- store -->
<g id="node5" class="node">
<title>store</title>
<path fill="white" stroke="black" d="M287,-133.73C287,-135.53 263.02,-137 233.5,-137 203.98,-137 180,-135.53 180,-133.73 180,-133.73 180,-104.27 180,-104.27 180,-102.47 203.98,-101 233.5,-101 263.02,-101 287,-102.47 287,-104.27 287,-104.27 287,-133.73 287,-133.73"/>
<path fill="none" stroke="black" d="M287,-133.73C287,-131.92 263.02,-130.45 233.5,-130.45 203.98,-130.45 180,-131.92 180,-133.73"/>
<text text-anchor="middle" x="233.5" y="-115.3" font-family="Helvetica,Arial,sans-serif" font-size="14.00">cc&#45;metric&#45;store</text>
</g>
<!-- nodeA&#45;&gt;store -->
<g id="edge1" class="edge">
<title>nodeA&#45;&gt;store</title>
<path fill="none" stroke="black" d="M133.59,-183.86C139.89,-181.1 146.16,-178.13 152,-175 169.06,-165.86 186.85,-153.8 201.35,-143.2"/>
<polygon fill="black" stroke="black" points="203.53,-145.94 209.47,-137.17 199.36,-140.32 203.53,-145.94"/>
</g>
<!-- nodeB -->
<g id="node2" class="node">
<title>nodeB</title>
<polygon fill="white" stroke="black" points="144,-166 16,-166 16,-128 144,-128 144,-166"/>
<text text-anchor="middle" x="80" y="-150.8" font-family="Helvetica,Arial,sans-serif" font-size="14.00">NodeB</text>
<text text-anchor="middle" x="80" y="-135.8" font-family="Helvetica,Arial,sans-serif" font-size="14.00">cc&#45;metric&#45;collector</text>
</g>
<!-- nodeB&#45;&gt;store -->
<g id="edge2" class="edge">
<title>nodeB&#45;&gt;store</title>
<path fill="none" stroke="black" d="M144.37,-135.29C152.88,-133.72 161.6,-132.1 170.1,-130.53"/>
<polygon fill="black" stroke="black" points="170.73,-133.97 179.93,-128.72 169.46,-127.09 170.73,-133.97"/>
</g>
<!-- nodeC -->
<g id="node3" class="node">
<title>nodeC</title>
<polygon fill="white" stroke="black" points="144,-110 16,-110 16,-72 144,-72 144,-110"/>
<text text-anchor="middle" x="80" y="-94.8" font-family="Helvetica,Arial,sans-serif" font-size="14.00">NodeC</text>
<text text-anchor="middle" x="80" y="-79.8" font-family="Helvetica,Arial,sans-serif" font-size="14.00">cc&#45;metric&#45;collector</text>
</g>
<!-- nodeC&#45;&gt;store -->
<g id="edge3" class="edge">
<title>nodeC&#45;&gt;store</title>
<path fill="none" stroke="black" d="M144.37,-102.71C152.88,-104.28 161.6,-105.9 170.1,-107.47"/>
<polygon fill="black" stroke="black" points="169.46,-110.91 179.93,-109.28 170.73,-104.03 169.46,-110.91"/>
</g>
<!-- mgm -->
<g id="node4" class="node">
<title>mgm</title>
<polygon fill="white" stroke="black" points="139.5,-54 20.5,-54 20.5,-16 139.5,-16 139.5,-54"/>
<text text-anchor="middle" x="80" y="-38.8" font-family="Helvetica,Arial,sans-serif" font-size="14.00">mgm</text>
<text text-anchor="middle" x="80" y="-23.8" font-family="Helvetica,Arial,sans-serif" font-size="14.00">cc&#45;slurm&#45;adapter</text>
</g>
<!-- backend -->
<g id="node6" class="node">
<title>backend</title>
<polygon fill="white" stroke="black" points="409,-137 323,-137 323,-101 409,-101 409,-137"/>
<text text-anchor="middle" x="366" y="-115.3" font-family="Helvetica,Arial,sans-serif" font-size="14.00">cc&#45;backend</text>
</g>
<!-- mgm&#45;&gt;backend -->
<g id="edge4" class="edge">
<title>mgm&#45;&gt;backend</title>
<path fill="none" stroke="black" d="M139.89,-50.23C181.25,-61.19 237.75,-76.68 287,-92 295.45,-94.63 304.36,-97.56 313.02,-100.5"/>
<polygon fill="black" stroke="black" points="312.06,-103.87 322.66,-103.8 314.33,-97.24 312.06,-103.87"/>
</g>
<!-- store&#45;&gt;backend -->
<g id="edge5" class="edge">
<title>store&#45;&gt;backend</title>
<path fill="none" stroke="black" d="M287.2,-112.36C295.65,-112.21 304.39,-112.21 312.83,-112.37"/>
<polygon fill="black" stroke="black" points="312.84,-115.87 322.93,-112.64 313.03,-108.88 312.84,-115.87"/>
</g>
<!-- backend&#45;&gt;store -->
<g id="edge6" class="edge">
<title>backend&#45;&gt;store</title>
<path fill="none" stroke="black" d="M322.93,-125.36C314.75,-125.65 306.01,-125.78 297.33,-125.75"/>
<polygon fill="black" stroke="black" points="297.24,-122.24 287.2,-125.64 297.17,-129.24 297.24,-122.24"/>
</g>
</g>
</svg>
