<?xml version="1.0" encoding="UTF-8" standalone="no"?>
<!DOCTYPE svg PUBLIC "-//W3C//DTD SVG 1.1//EN"
 "http://www.w3.org/Graphics/SVG/1.1/DTD/svg11.dtd">
<!-- Generated by graphviz version 2.44.0 (0)
 -->
<!-- Title: G Pages: 1 -->
<svg width="427pt" height="269pt"
 viewBox="0.00 0.00 427.00 269.00" xmlns="http://www.w3.org/2000/svg" xmlns:xlink="http://www.w3.org/1999/xlink">
<g id="graph0" class="graph" transform="scale(1 1) rotate(0) translate(4 265)">
<title>G</title>
<polygon fill="white" stroke="transparent" points="-4,4 -4,-265 423,-265 423,4 -4,4"/>
<g id="clust1" class="cluster">
<title>cluster_cluster</title>
<polygon fill="#f9f9f9" stroke="lightgrey" points="8,-8 8,-253 152,-253 152,-8 8,-8"/>
<text text-anchor="middle" x="80" y="-237.8" font-family="Helvetica,Arial,sans-serif" font-size="14.00">Cluster</text>
</g>
<g id="clust2" class="cluster">
<title>cluster_monitoring</title>
<polygon fill="none" stroke="black" stroke-dasharray="5,2" points="237,-91 237,-168 411,-168 411,-91 237,-91"/>
<text text-anchor="middle" x="324" y="-152.8" font-family="Helvetica,Arial,sans-serif" font-size="14.00">Monitoring Server</text>
</g>
<!-- nodeA -->
<g id="node1" class="node">
<title>nodeA</title>
<polygon fill="white" stroke="black" points="144,-222 16,-222 16,-184 144,-184 144,-222"/>
<text text-anchor="middle" x="80" y="-206.8" font-family="Helvetica,Arial,sans-serif" font-size="14.00">NodeA</text>
<text text-anchor="middle" x="80" y="-191.8" font-family="Helvetica,Arial,sans-serif" font-size="14.00">cc&#45;metric&#45;collector</text>
</g>
<!-- backend -->
<g id="node5" class="node">
<title>backend</title>
<polygon fill="white" stroke="black" points="403,-137 245,-137 245,-99 403,-99 403,-137"/>
<text text-anchor="middle" x="324" y="-121.8" font-family="Helvetica,Arial,sans-serif" font-size="14.00">cc&#45;backend</text>
<text text-anchor="middle" x="324" y="-106.8" font-family="Helvetica,Arial,sans-serif" font-size="14.00">Web/API + metric&#45;store</text>
</g>
<!-- nodeA&#45;&gt;backend -->
<g id="edge1" class="edge">
<title>nodeA&#45;&gt;backend</title>
<path fill="none" stroke="black" d="M141.26,-183.94C167.67,-175.39 198.98,-165 227,-155 239.47,-150.55 252.76,-145.58 265.36,-140.76"/>
<polygon fill="black" stroke="black" points="266.76,-143.97 274.83,-137.11 264.24,-137.44 266.76,-143.97"/>
<text text-anchor="middle" x="194.5" y="-179.8" font-family="Times-Roman" font-size="14.00">/api/write</text>
</g>
<!-- nodeB -->
<g id="node2" class="node">
<title>nodeB</title>
<polygon fill="white" stroke="black" points="144,-166 16,-166 16,-128 144,-128 144,-166"/>
<text text-anchor="middle" x="80" y="-150.8" font-family="Helvetica,Arial,sans-serif" font-size="14.00">NodeB</text>
<text text-anchor="middle" x="80" y="-135.8" font-family="Helvetica,Arial,sans-serif" font-size="14.00">cc&#45;metric&#45;collector</text>
</g>
<!-- nodeB&#45;&gt;backend -->
<g id="edge2" class="edge">
<title>nodeB&#45;&gt;backend</title>
<path fill="none" stroke="black" d="M144.27,-139.42C171.95,-136.1 204.89,-132.15 234.91,-128.56"/>
<polygon fill="black" stroke="black" points="235.46,-132.02 244.97,-127.35 234.62,-125.07 235.46,-132.02"/>
<text text-anchor="middle" x="194.5" y="-139.8" font-family="Times-Roman" font-size="14.00">/api/write</text>
</g>
<!-- nodeC -->
<g id="node3" class="node">
<title>nodeC</title>
<polygon fill="white" stroke="black" points="144,-110 16,-110 16,-72 144,-72 144,-110"/>
<text text-anchor="middle" x="80" y="-94.8" font-family="Helvetica,Arial,sans-serif" font-size="14.00">NodeC</text>
<text text-anchor="middle" x="80" y="-79.8" font-family="Helvetica,Arial,sans-serif" font-size="14.00">cc&#45;metric&#45;collector</text>
</g>
<!-- nodeC&#45;&gt;backend -->
<g id="edge3" class="edge">
<title>nodeC&#45;&gt;backend</title>
<path fill="none" stroke="black" d="M144.3,-96.53C169.99,-98.91 199.93,-101.87 227,-105 229.56,-105.3 232.15,-105.6 234.77,-105.92"/>
<polygon fill="black" stroke="black" points="234.61,-109.42 244.97,-107.17 235.47,-102.48 234.61,-109.42"/>
<text text-anchor="middle" x="194.5" y="-108.8" font-family="Times-Roman" font-size="14.00">/api/write</text>
</g>
<!-- mgm -->
<g id="node4" class="node">
<title>mgm</title>
<polygon fill="white" stroke="black" points="139.5,-54 20.5,-54 20.5,-16 139.5,-16 139.5,-54"/>
<text text-anchor="middle" x="80" y="-38.8" font-family="Helvetica,Arial,sans-serif" font-size="14.00">mgm</text>
<text text-anchor="middle" x="80" y="-23.8" font-family="Helvetica,Arial,sans-serif" font-size="14.00">cc&#45;slurm&#45;adapter</text>
</g>
<!-- mgm&#45;&gt;backend -->
<g id="edge4" class="edge">
<title>mgm&#45;&gt;backend</title>
<path fill="none" stroke="black" d="M136.52,-54.04C172.52,-66.39 219.57,-82.53 257.41,-95.5"/>
<polygon fill="black" stroke="black" points="256.73,-98.97 267.32,-98.9 259,-92.35 256.73,-98.97"/>
</g>
</g>
</svg>
